# Blender 4.4.3
# www.blender.org
mtllib stone_formation.mtl
o Cube
v 1.744551 16.247665 -0.700085
v 1.000000 -0.111488 -1.351659
v 2.595568 15.822102 1.907488
v 1.000000 -0.111489 1.000000
v -1.102280 6.202858 -2.162517
v -1.000000 -0.111488 -1.351659
v -0.255449 16.247665 2.072279
v -1.000000 -0.111488 1.625788
v 0.996179 47.414864 -1.458567
v 0.728828 38.947094 0.861961
v -1.047753 40.905876 -0.709633
v -1.448794 37.395138 2.257232
v 0.023698 16.885218 -0.820632
vn -0.9926 -0.0551 -0.1079
vn 0.2976 -0.0840 0.9510
vn -0.9999 -0.0162 -0.0000
vn -0.0000 -1.0000 -0.0000
vn 0.9950 -0.0996 -0.0000
vn -0.0000 -0.1274 -0.9919
vn -0.4754 0.2465 0.8446
vn 0.9517 0.0633 -0.3003
vn 0.1108 0.1124 -0.9875
vn 0.0569 -0.0055 0.9984
vn -0.9910 0.1133 -0.0707
vn -0.2591 -0.0297 -0.9654
vn -0.9821 -0.0430 -0.1836
vn 0.0533 -0.0297 0.9981
vn -0.9943 0.0426 0.0978
vn 0.9487 -0.0306 -0.3146
vn 0.4062 0.0179 -0.9136
vn 0.0320 0.6430 0.7652
vn 0.9757 0.0287 0.2172
vn 0.4972 0.0792 0.8640
vn 0.0728 0.0079 -0.9973
vt 0.078202 0.072315
vt 0.133787 0.505050
vt 0.072388 0.516963
vt 0.155125 0.555843
vt 0.234645 0.805419
vt 0.191940 0.798808
vt 0.072388 0.861341
vt 0.155125 0.730577
vt 0.134915 0.862921
vt 0.337627 0.062637
vt 0.295553 0.013165
vt 0.337627 0.000000
vt -0.000000 0.999769
vt 0.072388 0.664492
vt 0.049213 0.999929
vt 0.234645 0.867116
vt 0.280513 0.999804
vt 0.238536 1.000000
vt 0.221990 0.113089
vt 0.186938 0.167488
vt 0.176469 -0.000000
vt 0.016009 0.655533
vt 0.047586 0.178340
vt 0.295553 0.655638
vt 0.259203 0.642386
vt 0.234645 0.209324
vt 0.215082 0.548594
vt 0.234645 0.137185
vt 0.275868 0.000000
vt 0.142791 -0.000000
vt 0.295553 0.062637
vt 0.000000 0.000000
s 0
usemtl Material
f 12/1/1 13/2/1 7/3/1
f 3/4/2 8/5/2 4/6/2
f 8/7/3 5/8/3 6/9/3
f 6/10/4 4/11/4 8/12/4
f 2/13/5 3/14/5 4/15/5
f 5/16/6 2/17/6 6/18/6
f 11/19/7 10/20/7 9/21/7
f 1/22/8 10/23/8 3/14/8
f 1/24/9 5/16/9 13/25/9
f 3/4/10 12/26/10 7/27/10
f 5/8/11 7/3/11 13/2/11
f 1/24/12 11/28/12 9/29/12
f 12/1/13 11/30/13 13/2/13
f 3/4/14 7/27/14 8/5/14
f 8/7/15 7/3/15 5/8/15
f 6/10/4 2/31/4 4/11/4
f 2/13/16 1/22/16 3/14/16
f 5/16/17 1/24/17 2/17/17
f 11/19/18 12/26/18 10/20/18
f 1/22/19 9/32/19 10/23/19
f 3/4/20 10/20/20 12/26/20
f 1/24/21 13/25/21 11/28/21
