# Blender 4.4.3
# www.blender.org
mtllib PILL_main_pillar.mtl
o main_pillar
v 1.000000 11.704516 -1.000000
v 1.000000 -1.000000 -1.000000
v 1.000000 11.704516 1.000000
v 1.000000 -1.000000 1.000000
v -1.000000 11.704516 -1.000000
v -1.000000 -1.000000 -1.000000
v -1.000000 11.704516 1.000000
v -1.000000 -1.000000 1.000000
vn -1.0000 -0.0000 -0.0000
vn -0.0000 -1.0000 -0.0000
vn -0.0000 1.0000 -0.0000
vn 1.0000 -0.0000 -0.0000
vn -0.0000 -0.0000 -1.0000
vn -0.0000 -0.0000 1.0000
vt 0.000000 0.000000
vt 0.125471 0.000000
vt 0.125471 0.797022
vt 0.000000 0.797022
vt 0.125471 0.922493
vt 0.000000 0.797022
vt 0.125471 0.797022
vt 0.376412 0.922493
vt 0.250941 0.797022
vt 0.376412 0.797022
vt 0.250941 0.000000
vt 0.250941 0.797022
vt 0.376412 0.797022
vt 0.250941 0.922493
vt 0.000000 0.922493
vt 0.376412 0.000000
vt 0.501883 0.000000
vt 0.501883 0.797022
s 0
usemtl Material
f 7/1/1 5/2/1 6/3/1
f 7/1/1 6/3/1 8/4/1
f 2/5/2 8/6/2 6/7/2
f 5/8/3 3/9/3 1/10/3
f 1/2/4 3/11/4 4/12/4
f 5/11/5 2/13/5 6/12/5
f 5/8/3 7/14/3 3/9/3
f 1/2/4 4/12/4 2/3/4
f 2/5/2 4/15/2 8/6/2
f 3/16/6 7/17/6 8/18/6
f 3/16/6 8/18/6 4/13/6
f 5/11/5 1/16/5 2/13/5
